<svg width="44" height="40" viewBox="0 0 44 40" fill="none" xmlns="http://www.w3.org/2000/svg">
<path d="M1.04618 6.48499e-05L17.9291 6.48499e-05V20.6986C17.9291 26.3983 16.2856 30.8979 12.9987 34.1977C9.71174 37.5975 5.37896 39.2974 0.000339508 39.2974V30.448C5.57817 29.648 8.36708 26.8982 8.36708 22.1985V19.0488H1.04618L1.04618 6.48499e-05ZM26.4452 6.48499e-05H43.3281L43.3281 20.6986C43.3281 26.3983 41.6847 30.8979 38.3977 34.1977C35.1108 37.5975 30.778 39.2974 25.3994 39.2974V30.448C30.9772 29.648 33.7661 26.8982 33.7661 22.1985V19.0488L26.4452 19.0488V6.48499e-05Z" fill="#3170B4"/>
</svg>
