<svg width="21" height="21" viewBox="0 0 21 21" fill="none" xmlns="http://www.w3.org/2000/svg">
<g clip-path="url(#clip0_19_856)">
<path d="M10.5 21C16.2975 21 21 16.2975 21 10.5C21 4.70249 16.2975 0 10.5 0C4.70249 0 0 4.70249 0 10.5C0 16.2975 4.70249 21 10.5 21ZM9.74998 4.50001C9.74998 4.08749 10.0875 3.74999 10.5 3.74999C10.9125 3.74999 11.25 4.08749 11.25 4.50001V10.14L14.7188 12.915C15.0413 13.1738 15.0938 13.6462 14.835 13.9688C14.765 14.0567 14.676 14.1276 14.5747 14.1763C14.4734 14.225 14.3624 14.2502 14.25 14.25C14.085 14.25 13.92 14.1975 13.7813 14.085L10.0313 11.085C9.85503 10.9425 9.75004 10.7288 9.75004 10.5V4.50001H9.74998Z" fill="url(#paint0_linear_19_856)"/>
</g>
<defs>
<linearGradient id="paint0_linear_19_856" x1="0" y1="10.5" x2="21" y2="10.5" gradientUnits="userSpaceOnUse">
<stop stop-color="#3170B4"/>
<stop offset="1" stop-color="#5CCCC2"/>
</linearGradient>
<clipPath id="clip0_19_856">
<rect width="21" height="21" fill="white"/>
</clipPath>
</defs>
</svg>
