<svg width="33" height="33" viewBox="0 0 33 33" fill="none" xmlns="http://www.w3.org/2000/svg">
<path d="M16.1549 3.23047C10.5199 3.23047 5.95117 7.7992 5.95117 13.4342C5.95117 20.9917 16.1549 29.079 16.1549 29.079C16.1549 29.079 26.3586 20.9917 26.3586 13.4342C26.3586 7.7992 21.7899 3.23047 16.1549 3.23047ZM16.1549 20.2194C12.4069 20.2194 9.36965 17.1822 9.36965 13.4342C9.36965 9.68615 12.4069 6.64894 16.1549 6.64894C19.9029 6.64894 22.9401 9.68615 22.9401 13.4342C22.9401 17.1822 19.9029 20.2194 16.1549 20.2194ZM16.1549 8.46804C13.7607 8.46804 12.0482 8.88484 12.0482 10.1159V15.8058C12.0482 16.452 12.5749 16.9787 13.2211 16.9787H19.0855C19.7317 16.9787 20.2584 16.452 20.2584 15.8058V10.1159C20.2584 8.88484 18.5491 8.46804 16.1517 8.46804H16.1549ZM14.814 16.0707L13.5086 15.809C13.3439 15.7767 13.2243 15.6313 13.2243 15.4601V14.9786C13.2243 14.8332 13.3665 14.7299 13.5022 14.7751L14.1549 14.9883C14.465 15.0885 14.7106 15.3276 14.8237 15.6313L14.9336 15.9286C14.9402 15.9463 14.942 15.9654 14.9388 15.9841C14.9356 16.0027 14.9275 16.0201 14.9153 16.0346C14.9031 16.049 14.8873 16.06 14.8695 16.0664C14.8517 16.0727 14.8326 16.0742 14.814 16.0707ZM19.0887 15.4601C19.0887 15.6281 18.9692 15.7767 18.8044 15.809L17.499 16.0707C17.4804 16.0742 17.4613 16.0727 17.4435 16.0664C17.4257 16.06 17.4099 16.049 17.3977 16.0346C17.3856 16.0201 17.3775 16.0027 17.3743 15.9841C17.371 15.9654 17.3728 15.9463 17.3795 15.9286L17.4893 15.6313C17.6024 15.3244 17.848 15.0885 18.1582 14.9883L18.8108 14.7751C18.9498 14.7299 19.0887 14.8332 19.0887 14.9786V15.4601ZM19.0887 13.4083C19.0887 13.5441 19.0144 13.6636 18.8948 13.725C18.5556 13.9027 17.7414 14.2097 16.1581 14.2097C14.5749 14.2097 13.7574 13.9027 13.4214 13.725C13.3019 13.6636 13.2275 13.5408 13.2275 13.4083V10.5488C13.2275 10.3518 13.3859 10.1934 13.583 10.1934H18.7365C18.9336 10.1934 19.0919 10.3518 19.0919 10.5488V13.4083H19.0887ZM11.6443 11.3598C11.6314 11.3954 11.6217 11.4309 11.6217 11.4729V12.5392C11.6217 12.6781 11.5118 12.788 11.3729 12.788H11.1241C10.9852 12.788 10.8753 12.6781 10.8753 12.5392V11.3663C10.8758 11.152 10.954 10.9452 11.0954 10.7841C11.2369 10.6231 11.4319 10.5188 11.6443 10.4907V11.3631V11.3598ZM14.7332 17.3826V17.9157C14.7332 18.1839 14.5167 18.4004 14.2486 18.4004H13.4408C13.1726 18.4004 12.9561 18.1839 12.9561 17.9157V17.3567C13.0434 17.3729 13.1306 17.3826 13.2243 17.3826H14.7332ZM21.4312 11.3663V12.5392C21.4312 12.6781 21.3214 12.788 21.1824 12.788H20.9337C20.7947 12.788 20.6849 12.6781 20.6849 12.5392V11.4729C20.6849 11.4342 20.6752 11.3954 20.6622 11.3598V10.4875C20.8747 10.5156 21.0697 10.6199 21.2111 10.7809C21.3525 10.9419 21.4308 11.1488 21.4312 11.3631V11.3663ZM19.3537 17.3535V17.9125C19.3537 18.1806 19.1372 18.3971 18.869 18.3971H18.0612C17.7931 18.3971 17.5766 18.1806 17.5766 17.9125V17.3793H19.0855C19.176 17.3793 19.2664 17.3664 19.3537 17.3535Z" fill="url(#paint0_linear_14_48)"/>
<defs>
<linearGradient id="paint0_linear_14_48" x1="5.95117" y1="16.1548" x2="26.3586" y2="16.1548" gradientUnits="userSpaceOnUse">
<stop stop-color="#3170B4"/>
<stop offset="1" stop-color="#5CCCC2"/>
</linearGradient>
</defs>
</svg>
