<svg width="21" height="28" viewBox="0 0 21 28" fill="none" xmlns="http://www.w3.org/2000/svg">
<path fill-rule="evenodd" clip-rule="evenodd" d="M10.5044 1.3125C7.72029 1.316 5.05115 2.42543 3.08208 4.39761C1.113 6.36979 0.00465741 9.04379 0 11.8334C0 15.8593 2.53919 19.5279 4.95956 22.253C7.37992 24.978 9.80029 26.7947 9.80029 26.7947C10.0022 26.9464 10.2477 27.0284 10.5 27.0284C10.7523 27.0284 10.9978 26.9464 11.1997 26.7947C11.1997 26.7947 13.6201 24.978 16.0404 22.253C18.4608 19.5279 21 15.8593 21 11.8334C20.9977 9.04383 19.8907 6.36915 17.922 4.39659C15.9534 2.42404 13.2885 1.31484 10.5044 1.3125ZM10.5 7.15943C11.7372 7.15943 12.9236 7.65187 13.7984 8.52842C14.6733 9.40496 15.1647 10.5938 15.1647 11.8334C15.1647 13.0731 14.6733 14.2619 13.7984 15.1385C12.9236 16.015 11.7372 16.5075 10.5 16.5075C9.26284 16.5075 8.07635 16.015 7.20155 15.1385C6.32675 14.2619 5.83529 13.0731 5.83529 11.8334C5.83529 10.5938 6.32675 9.40496 7.20155 8.52842C8.07635 7.65187 9.26284 7.15943 10.5 7.15943Z" fill="url(#paint0_linear_19_837)"/>
<defs>
<linearGradient id="paint0_linear_19_837" x1="0" y1="14.1705" x2="21" y2="14.1705" gradientUnits="userSpaceOnUse">
<stop stop-color="#3170B4"/>
<stop offset="1" stop-color="#5CCCC2"/>
</linearGradient>
</defs>
</svg>
