<svg width="21" height="21" viewBox="0 0 21 21" fill="none" xmlns="http://www.w3.org/2000/svg">
<g clip-path="url(#clip0_19_842)">
<path d="M20.4308 15.4119L17.5002 12.4813C16.4535 11.4346 14.6742 11.8533 14.2556 13.2139C13.9416 14.1559 12.8949 14.6793 11.953 14.4699C9.85966 13.9466 7.03371 11.2253 6.51039 9.02733C6.1964 8.08531 6.82438 7.03866 7.76637 6.72471C9.12701 6.30605 9.54567 4.52675 8.49902 3.4801L5.56841 0.54949C4.73109 -0.183163 3.47511 -0.183163 2.74246 0.54949L0.75383 2.53812C-1.2348 4.63141 0.96316 10.1786 5.8824 15.0979C10.8016 20.0171 16.3489 22.3198 18.4422 20.2265L20.4308 18.2378C21.1635 17.4005 21.1635 16.1445 20.4308 15.4119Z" fill="url(#paint0_linear_19_842)"/>
</g>
<defs>
<linearGradient id="paint0_linear_19_842" x1="0.0244141" y1="10.5" x2="20.9803" y2="10.5" gradientUnits="userSpaceOnUse">
<stop stop-color="#3170B4"/>
<stop offset="1" stop-color="#5CCCC2"/>
</linearGradient>
<clipPath id="clip0_19_842">
<rect width="21" height="21" fill="white"/>
</clipPath>
</defs>
</svg>
