<svg width="24" height="24" viewBox="0 0 24 24" fill="none" xmlns="http://www.w3.org/2000/svg">
<path fill-rule="evenodd" clip-rule="evenodd" d="M12.0227 0.997559C9.63157 1.00056 7.33917 1.9515 5.64803 3.64194C3.95688 5.33238 3.00498 7.62438 3.00098 10.0155C3.00098 13.4662 5.18176 16.6108 7.2605 18.9465C9.33924 21.2823 11.418 22.8395 11.418 22.8395C11.5914 22.9695 11.8022 23.0398 12.0189 23.0398C12.2356 23.0398 12.4465 22.9695 12.6199 22.8395C12.6199 22.8395 14.6986 21.2823 16.7774 18.9465C18.8561 16.6108 21.0369 13.4662 21.0369 10.0155C21.0349 7.62442 20.0841 5.33183 18.3934 3.64107C16.7026 1.95031 14.4138 0.99956 12.0227 0.997559ZM12.0189 6.00921C13.0815 6.00921 14.1005 6.4313 14.8518 7.18263C15.6031 7.93396 16.0252 8.95298 16.0252 10.0155C16.0252 11.078 15.6031 12.0971 14.8518 12.8484C14.1005 13.5997 13.0815 14.0218 12.0189 14.0218C10.9564 14.0218 9.93737 13.5997 9.18605 12.8484C8.43472 12.0971 8.01263 11.078 8.01263 10.0155C8.01263 8.95298 8.43472 7.93396 9.18605 7.18263C9.93737 6.4313 10.9564 6.00921 12.0189 6.00921Z" fill="url(#paint0_linear_318_4419)"/>
<defs>
<linearGradient id="paint0_linear_318_4419" x1="3.00098" y1="12.0187" x2="21.0369" y2="12.0187" gradientUnits="userSpaceOnUse">
<stop stop-color="#3170B4"/>
<stop offset="1" stop-color="#5CCCC2"/>
</linearGradient>
</defs>
</svg>
