<svg width="312" height="69" viewBox="0 0 312 69" fill="none" xmlns="http://www.w3.org/2000/svg">
<path d="M31.6893 9.23383V0.817383C21.0608 1.61895 0.178576 10.2546 0.832638 34.3016C1.4867 58.3486 21.6058 66.0114 31.6893 67.3474V40.0941C31.6893 33.8964 26.665 28.8722 20.4673 28.8722H10.5612C12.1225 21.027 16.4753 15.8688 21.4209 12.8083C24.7623 10.7406 29.3817 9.66476 31.6893 9.23383Z" stroke="#3170B4" stroke-width="1.63516" stroke-linecap="round" stroke-linejoin="round"/>
<path d="M16.896 37.1948H10.1086C11.2399 46.2926 20.0159 54.3846 23.2308 56.049V43.5297C23.2308 40.031 20.3946 37.1948 16.896 37.1948Z" stroke="#3170B4" stroke-width="1.63516" stroke-linecap="round" stroke-linejoin="round"/>
<path d="M36.58 9.23383V0.817383C47.2085 1.61895 69.8128 10.9333 69.1587 34.9803C68.5046 59.0273 46.6634 66.0114 36.58 67.3474V39.2926V33.2808V27.2691V9.23383Z" stroke="#5CCCC2" stroke-width="1.63516" stroke-linecap="round" stroke-linejoin="round"/>
<path d="M44.9502 54.4361V13.4858C51.1514 15.1673 62.3351 23.373 60.0256 37.363C57.797 50.8638 49.2269 53.8756 44.9502 54.4361Z" stroke="#5CCCC2" stroke-width="1.63516" stroke-linecap="round" stroke-linejoin="round"/>
<path d="M15.9912 23.6668H20.7423L23.4573 17.7845L26.6247 26.3818L28.8872 13.4858L29.7921 22.3094H34.0908" stroke="#3170B4" stroke-width="1.63349" stroke-linecap="round" stroke-linejoin="round"/>
<path d="M81.8908 45.1682H84.2859L88.4774 55.5357L92.6688 45.1682H95.0468V57.811H93.4216V47.1527L89.1446 57.811H87.7759L83.516 47.1527V57.811H81.8908V45.1682ZM109.914 54.8171C109.754 55.2962 109.52 55.7353 109.212 56.1344C108.916 56.5222 108.568 56.8587 108.169 57.1438C107.769 57.429 107.33 57.6514 106.851 57.811C106.384 57.9593 105.893 58.0334 105.38 58.0334C104.684 58.0334 104.028 57.908 103.413 57.6571C102.808 57.3947 102.278 57.0412 101.822 56.5964C101.365 56.1516 101.006 55.6326 100.744 55.0395C100.493 54.435 100.367 53.7849 100.367 53.0892C100.367 52.4049 100.493 51.7662 100.744 51.1731C101.006 50.58 101.354 50.0611 101.787 49.6163C102.232 49.1715 102.751 48.8236 103.344 48.5727C103.937 48.3218 104.576 48.1963 105.26 48.1963C105.945 48.1963 106.583 48.3275 107.176 48.5898C107.781 48.8407 108.305 49.1886 108.75 49.6334C109.195 50.0668 109.543 50.58 109.794 51.1731C110.056 51.7662 110.187 52.4049 110.187 53.0892C110.187 53.3173 110.165 53.5283 110.119 53.7222H102.044C102.078 54.1328 102.186 54.5092 102.369 54.8513C102.563 55.1935 102.802 55.4957 103.088 55.7581C103.384 56.009 103.726 56.2086 104.114 56.3569C104.502 56.4937 104.912 56.5621 105.346 56.5621C105.973 56.5621 106.538 56.4082 107.039 56.1002C107.553 55.7923 107.946 55.3646 108.22 54.8171H109.914ZM108.562 52.3022C108.368 51.4696 107.98 50.8252 107.399 50.369C106.828 49.9014 106.121 49.6676 105.277 49.6676C104.456 49.6676 103.755 49.9071 103.173 50.3861C102.591 50.8538 102.215 51.4925 102.044 52.3022H108.562ZM113.905 56.3569H115.188L118.592 48.4187H120.2L123.605 56.3569H124.888V60.0009H123.776L123.297 57.811H115.496L115.034 60.0009H113.905V56.3569ZM121.928 56.3569L119.396 50.4204L116.864 56.3569H121.928ZM129.591 48.4187H131.182V55.5357L136.4 48.4187H138.008V57.811H136.417V50.677L131.199 57.811H129.591V48.4187ZM143.488 48.4187H145.096V56.3569H149.937V48.4187H151.528V56.3569H153.154V60.0009H152.024L151.563 57.811H143.488V48.4187ZM157.769 48.4187H159.36V55.5357L164.578 48.4187H166.186V57.811H164.595V50.677L159.377 57.811H157.769V48.4187ZM171.666 48.4187H173.274V52.3193H178.406V48.4187H179.997V57.811H178.406V53.7735H173.274V57.811H171.666V48.4187ZM194.803 54.9369C193.811 57.0013 192.271 58.0334 190.184 58.0334C189.465 58.0334 188.798 57.908 188.182 57.6571C187.566 57.3947 187.025 57.0412 186.557 56.5964C186.101 56.1516 185.741 55.6326 185.479 55.0395C185.217 54.435 185.086 53.7849 185.086 53.0892C185.086 52.4049 185.211 51.7662 185.462 51.1731C185.724 50.58 186.084 50.0611 186.54 49.6163C186.996 49.1715 187.526 48.8236 188.131 48.5727C188.747 48.3218 189.403 48.1963 190.098 48.1963C191.182 48.1963 192.14 48.4757 192.972 49.0346C193.805 49.5935 194.41 50.369 194.786 51.3613H192.99C192.351 50.2322 191.381 49.6676 190.081 49.6676C189.602 49.6676 189.157 49.7588 188.747 49.9413C188.336 50.1124 187.977 50.3519 187.669 50.6599C187.372 50.9678 187.139 51.3328 186.968 51.7548C186.796 52.1654 186.711 52.6159 186.711 53.1063C186.711 53.5968 186.796 54.053 186.968 54.475C187.15 54.897 187.395 55.2619 187.703 55.5699C188.011 55.8778 188.37 56.123 188.781 56.3055C189.203 56.4766 189.653 56.5621 190.132 56.5621C190.737 56.5621 191.256 56.4367 191.689 56.1858C192.134 55.9349 192.568 55.5186 192.99 54.9369H194.803ZM199.844 48.4187H201.452V52.6444L205.387 48.4187H207.406L203.026 53.0037L207.474 57.811H205.387L201.452 53.4143V57.811H199.844V48.4187ZM211.987 48.4187H213.578V55.5357L218.796 48.4187H220.404V57.811H218.813V50.677L213.595 57.811H211.987V48.4187ZM228.843 45.0484C228.843 45.9609 229.26 46.4171 230.092 46.4171C230.925 46.4171 231.341 45.9609 231.341 45.0484H232.761C232.636 45.7784 232.345 46.3315 231.888 46.7079C231.444 47.0843 230.845 47.2725 230.092 47.2725C229.339 47.2725 228.735 47.0843 228.279 46.7079C227.834 46.3315 227.549 45.7784 227.423 45.0484H228.843ZM225.884 48.4187H227.475V55.5357L232.693 48.4187H234.301V57.811H232.71V50.677L227.492 57.811H225.884V48.4187ZM247.964 48.4187H249.572V56.3569H254.413V48.4187H256.004V56.3569H257.63V60.0009H256.501L256.039 57.811H247.964V48.4187ZM271.398 54.8171C271.238 55.2962 271.004 55.7353 270.696 56.1344C270.4 56.5222 270.052 56.8587 269.653 57.1438C269.253 57.429 268.814 57.6514 268.335 57.811C267.868 57.9593 267.377 58.0334 266.864 58.0334C266.168 58.0334 265.512 57.908 264.897 57.6571C264.292 57.3947 263.762 57.0412 263.306 56.5964C262.849 56.1516 262.49 55.6326 262.228 55.0395C261.977 54.435 261.851 53.7849 261.851 53.0892C261.851 52.4049 261.977 51.7662 262.228 51.1731C262.49 50.58 262.838 50.0611 263.271 49.6163C263.716 49.1715 264.235 48.8236 264.828 48.5727C265.421 48.3218 266.06 48.1963 266.744 48.1963C267.429 48.1963 268.067 48.3275 268.66 48.5898C269.265 48.8407 269.789 49.1886 270.234 49.6334C270.679 50.0668 271.027 50.58 271.278 51.1731C271.54 51.7662 271.671 52.4049 271.671 53.0892C271.671 53.3173 271.649 53.5283 271.603 53.7222H263.528C263.562 54.1328 263.67 54.5092 263.853 54.8513C264.047 55.1935 264.286 55.4957 264.572 55.7581C264.868 56.009 265.21 56.2086 265.598 56.3569C265.986 56.4937 266.396 56.5621 266.83 56.5621C267.457 56.5621 268.022 56.4082 268.523 56.1002C269.037 55.7923 269.43 55.3646 269.704 54.8171H271.398ZM270.046 52.3022C269.852 51.4696 269.464 50.8252 268.883 50.369C268.312 49.9014 267.605 49.6676 266.761 49.6676C265.94 49.6676 265.239 49.9071 264.657 50.3861C264.075 50.8538 263.699 51.4925 263.528 52.3022H270.046ZM276.693 48.4187H278.301V52.3193H283.434V48.4187H285.025V57.811H283.434V53.7735H278.301V57.811H276.693V48.4187ZM292.098 49.8729H289.72V48.4187H296.05V49.8729H293.706V57.811H292.098V49.8729ZM300.745 48.4187H302.284V49.8558C302.672 49.3083 303.163 48.8977 303.756 48.624C304.349 48.3389 305.022 48.1963 305.774 48.1963C306.47 48.1963 307.115 48.3218 307.708 48.5727C308.301 48.8236 308.814 49.1658 309.247 49.5992C309.681 50.0326 310.017 50.5515 310.257 51.156C310.508 51.7491 310.633 52.3992 310.633 53.1063C310.633 53.802 310.508 54.4522 310.257 55.0566C310.006 55.6611 309.664 56.1858 309.23 56.6306C308.797 57.064 308.278 57.4061 307.673 57.6571C307.08 57.908 306.436 58.0334 305.74 58.0334C304.326 58.0334 303.197 57.5031 302.353 56.4424V61.0616H300.745V48.4187ZM305.655 56.5621C306.134 56.5621 306.573 56.4766 306.972 56.3055C307.383 56.1344 307.736 55.8949 308.033 55.587C308.341 55.279 308.58 54.9198 308.751 54.5092C308.922 54.0872 309.008 53.631 309.008 53.1405C309.008 52.6387 308.922 52.1768 308.751 51.7548C308.58 51.3214 308.341 50.9507 308.033 50.6428C307.736 50.3348 307.377 50.0953 306.955 49.9242C306.544 49.7531 306.088 49.6676 305.586 49.6676C305.119 49.6676 304.679 49.7588 304.269 49.9413C303.87 50.1124 303.516 50.3519 303.208 50.6599C302.912 50.9678 302.678 51.3328 302.507 51.7548C302.336 52.1768 302.25 52.633 302.25 53.1234C302.25 53.6139 302.336 54.0701 302.507 54.4921C302.678 54.9027 302.917 55.2619 303.225 55.5699C303.533 55.8778 303.893 56.123 304.303 56.3055C304.725 56.4766 305.176 56.5621 305.655 56.5621Z" fill="#5CCCC2"/>
<path d="M87.2762 29.9338C87.8429 29.9338 88.4306 29.9128 89.0393 29.8709C89.6689 29.8289 90.2356 29.7029 90.7393 29.4931C91.2641 29.2832 91.6943 28.9683 92.0301 28.5486C92.366 28.1078 92.5339 27.4991 92.5339 26.7225C92.5339 25.9879 92.345 25.4212 91.9672 25.0225C91.6104 24.6027 91.1591 24.2983 90.6134 24.1094C90.0677 23.8996 89.48 23.7736 88.8504 23.7317C88.2207 23.6687 87.633 23.6372 87.0873 23.6372H85.702V29.9338H87.2762ZM81.3889 10.7921H95.3988V14.9164H85.702V19.5129H87.1503C88.0108 19.5129 88.7559 19.5339 89.3856 19.5759C90.0362 19.5969 90.6029 19.6493 91.0857 19.7333C91.5684 19.7963 91.9987 19.8907 92.3765 20.0166C92.7543 20.1216 93.1111 20.2685 93.4469 20.4574C94.5173 21.0241 95.3569 21.8742 95.9655 23.0075C96.5742 24.1409 96.8785 25.4108 96.8785 26.817C96.8785 28.1393 96.6057 29.3251 96.06 30.3746C95.5353 31.424 94.7692 32.2531 93.7617 32.8617C93.4049 33.0716 93.0166 33.2605 92.5968 33.4284C92.1981 33.5754 91.7363 33.7013 91.2116 33.8062C90.7079 33.8902 90.1307 33.9532 89.48 33.9951C88.8294 34.0371 88.0738 34.0581 87.2132 34.0581H81.3889V10.7921ZM100.236 10.7921H104.517V26.9114L114.623 10.7921H119V34.0581H114.718V17.9388L104.612 34.0581H100.236V10.7921ZM122.377 22.4408C122.377 20.7408 122.692 19.1561 123.322 17.6869C123.951 16.2177 124.812 14.9479 125.903 13.8774C127.016 12.786 128.317 11.936 129.807 11.3273C131.318 10.6977 132.945 10.3828 134.687 10.3828C136.345 10.3828 137.898 10.6977 139.347 11.3273C140.795 11.957 142.054 12.8175 143.124 13.9089C144.216 15.0003 145.066 16.2807 145.675 17.7499C146.304 19.1981 146.619 20.7513 146.619 22.4094C146.619 24.1095 146.304 25.6941 145.675 27.1633C145.066 28.6325 144.226 29.9128 143.156 31.0042C142.086 32.0747 140.816 32.9247 139.347 33.5544C137.898 34.163 136.324 34.4674 134.624 34.4674C132.924 34.4674 131.329 34.163 129.839 33.5544C128.348 32.9247 127.047 32.0747 125.935 31.0042C124.843 29.9128 123.972 28.6325 123.322 27.1633C122.692 25.6941 122.377 24.1199 122.377 22.4408ZM126.722 22.4094C126.722 23.5218 126.921 24.5607 127.32 25.5262C127.74 26.4917 128.296 27.3312 128.989 28.0448C129.702 28.7375 130.542 29.2937 131.507 29.7134C132.473 30.1122 133.501 30.3116 134.593 30.3116C135.705 30.3116 136.723 30.1122 137.646 29.7134C138.591 29.3147 139.399 28.7689 140.071 28.0763C140.763 27.3837 141.298 26.5651 141.676 25.6206C142.075 24.6552 142.274 23.6057 142.274 22.4723C142.274 21.3389 142.075 20.2895 141.676 19.324C141.277 18.3376 140.732 17.498 140.039 16.8054C139.347 16.0918 138.517 15.5356 137.552 15.1368C136.587 14.738 135.537 14.5386 134.404 14.5386C133.333 14.5386 132.326 14.7485 131.381 15.1683C130.458 15.567 129.65 16.1232 128.957 16.8369C128.264 17.5505 127.719 18.39 127.32 19.3555C126.921 20.3 126.722 21.3179 126.722 22.4094ZM171.862 27.5726C171.4 28.643 170.802 29.6085 170.068 30.469C169.354 31.3086 168.535 32.0327 167.612 32.6414C166.688 33.2291 165.67 33.6803 164.558 33.9951C163.467 34.31 162.323 34.4674 161.126 34.4674C159.426 34.4674 157.831 34.1526 156.341 33.5229C154.851 32.8932 153.549 32.0327 152.437 30.9413C151.346 29.8499 150.475 28.5696 149.824 27.1003C149.194 25.6101 148.88 24.0255 148.88 22.3464C148.88 20.7093 149.194 19.1666 149.824 17.7184C150.454 16.2492 151.304 14.9794 152.374 13.9089C153.466 12.8175 154.735 11.957 156.184 11.3273C157.653 10.6977 159.206 10.3828 160.843 10.3828C163.32 10.3828 165.524 11.002 167.455 12.2403C169.385 13.4787 170.855 15.2207 171.862 17.4665H167.045C166.248 16.4381 165.366 15.693 164.401 15.2312C163.456 14.7695 162.302 14.5386 160.938 14.5386C159.846 14.5386 158.828 14.738 157.884 15.1368C156.939 15.5356 156.121 16.0918 155.428 16.8054C154.735 17.498 154.19 18.3271 153.791 19.2925C153.413 20.237 153.224 21.2655 153.224 22.3779C153.224 23.4693 153.424 24.4977 153.822 25.4632C154.242 26.4287 154.809 27.2683 155.522 27.9819C156.236 28.6955 157.065 29.2622 158.01 29.682C158.954 30.1017 159.962 30.3116 161.032 30.3116C162.144 30.3116 163.141 30.1017 164.023 29.682C164.904 29.2622 165.828 28.5591 166.793 27.5726H171.862ZM183.598 32.2636C182.191 32.0327 180.89 31.6234 179.694 31.0357C178.518 30.4271 177.5 29.682 176.64 28.8004C175.8 27.8979 175.139 26.8905 174.657 25.7781C174.174 24.6657 173.932 23.4798 173.932 22.2205C173.932 20.9611 174.174 19.7753 174.657 18.6629C175.139 17.5505 175.8 16.5535 176.64 15.672C177.5 14.7695 178.518 14.0139 179.694 13.4052C180.89 12.7965 182.191 12.3872 183.598 12.1774V10.7921H187.911V12.1774C189.338 12.3872 190.639 12.7965 191.815 13.4052C192.99 14.0139 194.008 14.759 194.869 15.6405C195.729 16.522 196.39 17.5295 196.852 18.6629C197.335 19.7753 197.576 20.9611 197.576 22.2205C197.576 23.4798 197.335 24.6761 196.852 25.8095C196.39 26.9219 195.729 27.9189 194.869 28.8004C194.008 29.682 192.99 30.4271 191.815 31.0357C190.639 31.6444 189.338 32.0537 187.911 32.2636V34.0581H183.598V32.2636ZM183.598 16.4276C182.8 16.6165 182.066 16.8998 181.394 17.2776C180.743 17.6344 180.187 18.0647 179.725 18.5684C179.264 19.0722 178.907 19.6389 178.655 20.2685C178.403 20.8772 178.277 21.5278 178.277 22.2205C178.277 22.9131 178.403 23.5742 178.655 24.2039C178.907 24.8336 179.264 25.4003 179.725 25.904C180.208 26.4077 180.775 26.8485 181.425 27.2263C182.076 27.5831 182.8 27.8559 183.598 28.0448V16.4276ZM187.911 28.0448C188.708 27.8559 189.433 27.5831 190.083 27.2263C190.734 26.8485 191.29 26.4077 191.752 25.904C192.235 25.4003 192.602 24.8336 192.854 24.2039C193.106 23.5742 193.232 22.9131 193.232 22.2205C193.232 21.5278 193.106 20.8667 192.854 20.237C192.602 19.6074 192.235 19.0407 191.752 18.5369C191.29 18.0332 190.734 17.6029 190.083 17.2461C189.433 16.8683 188.708 16.585 187.911 16.3961V28.0448ZM200.742 10.7921H213.241V14.9164H205.055V20.3944H212.894V24.5187H205.055V29.9338H213.241V34.0581H200.742V10.7921ZM217.252 10.7921H223.013C224.587 10.7921 225.826 10.8866 226.728 11.0755C227.652 11.2434 228.46 11.5477 229.153 11.9885C230.097 12.5971 230.821 13.4157 231.325 14.4441C231.85 15.4726 232.112 16.648 232.112 17.9702C232.112 19.3555 231.818 20.6148 231.23 21.7482C230.664 22.8606 229.877 23.7002 228.869 24.2669C228.554 24.4348 228.219 24.5817 227.862 24.7076C227.505 24.8336 227.096 24.9385 226.634 25.0225C226.172 25.0854 225.637 25.1379 225.028 25.1799C224.441 25.2009 223.748 25.2114 222.95 25.2114H221.565V34.0581H217.252V10.7921ZM222.824 21.0871C223.37 21.0871 223.926 21.0661 224.493 21.0241C225.081 20.9821 225.616 20.8667 226.099 20.6778C226.581 20.4679 226.98 20.1636 227.295 19.7648C227.61 19.345 227.767 18.7783 227.767 18.0647C227.767 17.3301 227.589 16.7004 227.232 16.1757C226.875 15.651 226.382 15.3047 225.752 15.1368C225.396 15.0528 225.018 15.0003 224.619 14.9794C224.22 14.9374 223.685 14.9164 223.013 14.9164H221.565V21.0871H222.824ZM242.981 10.7921H246.381L256.141 34.0581H251.387L248.9 28.0448H240.62L238.038 34.0581H233.284L242.981 10.7921ZM247.168 23.9206L244.681 16.8683L242.194 23.9206H247.168Z" fill="#3170B4"/>
<path d="M265.634 29.9338H268.719L276.684 10.7921H280.147L288.112 29.9338H291.198V38.6232H288.175L287.294 34.0581H269.537L268.656 38.6232H265.634V29.9338ZM283.642 29.9338L278.416 17.1832L273.189 29.9338H283.642ZM293.869 10.7921H298.654C301.719 10.7921 303.975 11.2958 305.423 12.3033C306.871 13.2898 307.596 14.8534 307.596 16.9943C307.596 18.1067 307.396 18.9987 306.997 19.6703C306.62 20.321 305.958 20.8877 305.014 21.3704C306.42 21.9371 307.428 22.6717 308.036 23.5742C308.666 24.4768 308.981 25.6626 308.981 27.1318C308.981 29.3566 308.204 31.0672 306.651 32.2636C305.119 33.4599 302.926 34.0581 300.071 34.0581H293.869V10.7921ZM300.323 29.9338C301.834 29.9338 302.926 29.7029 303.597 29.2412C304.29 28.7794 304.636 28.0343 304.636 27.0059C304.636 26.0824 304.363 25.3478 303.818 24.8021C303.272 24.2564 302.537 23.9835 301.614 23.9835H298.182V29.9338H300.323ZM300.953 19.7648C301.687 19.7648 302.254 19.5549 302.653 19.1351C303.073 18.6944 303.282 18.1067 303.282 17.3721C303.282 15.7979 302.17 15.0108 299.945 15.0108H298.182V19.7648H300.953Z" fill="#5CCCC2"/>
</svg>
